<svg xmlns="http://www.w3.org/2000/svg" viewBox="0 0 24 24" fill="none">
  <!-- Central "Planet" Object -->
  <circle cx="12" cy="8" r="3" fill="#60A5FA" stroke="#3B82F6" stroke-width="0.5"/>
  
  <!-- Finger holes on the planet -->
  <circle cx="11" cy="7" r="0.3" fill="none" stroke="#3B82F6" stroke-width="0.5"/>
  <circle cx="12.5" cy="7.5" r="0.3" fill="none" stroke="#3B82F6" stroke-width="0.5"/>
  <circle cx="11.5" cy="8.5" r="0.3" fill="none" stroke="#3B82F6" stroke-width="0.5"/>
  
  <!-- Saturn-like ring -->
  <ellipse cx="12" cy="8" rx="4" ry="1" fill="none" stroke="#60A5FA" stroke-width="0.5"/>
  
  <!-- Small moons/satellites on the ring -->
  <circle cx="8" cy="8" r="0.4" fill="#60A5FA"/>
  <circle cx="16" cy="8" r="0.4" fill="#60A5FA"/>
  
  <!-- Orbital path -->
  <path d="M6 6 Q8 4 10 6" stroke="#60A5FA" stroke-width="0.5" fill="none" stroke-dasharray="1,1"/>
  
  <!-- Base Structure (3D rectangular prism) -->
  <rect x="8" y="14" width="8" height="3" fill="#60A5FA" stroke="#3B82F6" stroke-width="0.5"/>
  <rect x="8.5" y="13.5" width="7" height="0.5" fill="#60A5FA" stroke="#3B82F6" stroke-width="0.5"/>
  
  <!-- Holes in the base -->
  <circle cx="10" cy="15.5" r="0.4" fill="none" stroke="white" stroke-width="0.3"/>
  <circle cx="14" cy="15.5" r="0.4" fill="none" stroke="white" stroke-width="0.3"/>
  
  <!-- Connecting energy beams -->
  <path d="M10 15.5 L11 10" stroke="#60A5FA" stroke-width="0.5" fill="none" stroke-dasharray="0.5,0.5"/>
  <path d="M14 15.5 L13 10" stroke="#60A5FA" stroke-width="0.5" fill="none" stroke-dasharray="0.5,0.5"/>
  
  <!-- Decorative stars -->
  <path d="M4 4 L4.5 3.5 L5 4 L4.5 4.5 Z" fill="#60A5FA"/>
  <path d="M18 6 L18.5 5.5 L19 6 L18.5 6.5 Z" fill="#60A5FA"/>
  
  <!-- Small decorative circle -->
  <circle cx="6" cy="16" r="0.3" fill="#60A5FA"/>
  
  <!-- Additional dashed lines -->
  <path d="M6 14 L8 14" stroke="#60A5FA" stroke-width="0.3" fill="none" stroke-dasharray="0.3,0.3"/>
  <path d="M16 14 L18 14" stroke="#60A5FA" stroke-width="0.3" fill="none" stroke-dasharray="0.3,0.3"/>
  <path d="M10 6 L12 8" stroke="#60A5FA" stroke-width="0.3" fill="none" stroke-dasharray="0.3,0.3"/>
</svg>
